<svg xmlns="http://www.w3.org/2000/svg" version="1.1" xmlns:xlink="http://www.w3.org/1999/xlink" xmlns:svgjs="http://svgjs.com/svgjs" width="1440" height="560" preserveAspectRatio="none" viewBox="0 0 1440 560">
    <g mask="url(&quot;#SvgjsMask1000&quot;)" fill="none">
        <rect width="1440" height="560" x="0" y="0" fill="#0e2a47"></rect>
        <path d="M0,415.172C76.513,412.223,137.223,354.59,197.699,307.626C253.413,264.361,309.797,218.971,336.649,153.742C363,89.729,341.922,19.602,344.737,-49.566C348.315,-137.49,410.143,-239.063,355.438,-307.989C301.345,-376.145,190.642,-349.25,103.72,-353.239C35.156,-356.385,-32.439,-353.307,-96.523,-328.729C-156.97,-305.546,-206.619,-264.644,-250.76,-217.285C-296.306,-168.418,-342.193,-116.587,-355.3,-51.084C-368.748,16.121,-348.965,84.127,-323.831,147.889C-297.591,214.456,-262.925,277.706,-207.742,323.253C-148.135,372.451,-77.231,418.149,0,415.172" fill="#0b2239"></path>
        <path d="M1440 1100.511C1562.769 1108.455 1689.808 1174.384 1800.982 1121.7 1914.452 1067.9279999999999 1999.346 948.972 2020.836 825.259 2041.259 707.686 1933.941 609.35 1910.299 492.381 1888.604 385.046 1936.328 269.826 1888.645 171.247 1834.488 59.28399999999999 1751.686-61.363000000000056 1630.004-87.096 1508.229-112.84900000000005 1408.186 9.863000000000056 1288.591 44.347999999999956 1168.15 79.077 1014.421 25.63900000000001 927.115 115.582 840.154 205.16899999999998 864.877 352.93 867.902 477.745 870.524 585.951 903.14 686.319 943.381 786.798 985.557 892.108 1011.931 1016.2660000000001 1107.84 1076.851 1203.625 1137.358 1326.941 1093.196 1440 1100.511" fill="#113255"></path>
    </g>
    <defs>
        <mask id="SvgjsMask1000">
            <rect width="1440" height="560" fill="#ffffff"></rect>
        </mask>
    </defs>
</svg>